<?xml version="1.0" standalone="no"?>
<!DOCTYPE svg PUBLIC "-//W3C//DTD SVG 20010904//EN"
 "http://www.w3.org/TR/2001/REC-SVG-20010904/DTD/svg10.dtd">
<svg version="1.0" xmlns="http://www.w3.org/2000/svg"
 width="16.000000pt" height="16.000000pt" viewBox="0 0 16.000000 16.000000"
 preserveAspectRatio="xMidYMid meet">
<metadata>
Created by potrace 1.11, written by Peter Selinger 2001-2013
</metadata>
<g transform="translate(0.000000,16.000000) scale(0.020513,-0.020513)"
fill="#000000" stroke="none">
<path d="M303 761 c-100 -26 -207 -110 -251 -197 -72 -143 -47 -315 62 -432
200 -214 556 -129 641 153 22 74 14 188 -17 257 -36 78 -107 151 -183 189 -50
25 -79 32 -141 34 -44 3 -93 0 -111 -4z m219 -68 c108 -48 183 -155 194 -274
11 -114 -34 -216 -127 -291 -122 -99 -320 -84 -434 32 l-39 40 40 0 40 0 -1
103 c-1 119 1 127 26 127 15 0 19 7 19 35 0 30 -3 35 -24 35 -19 0 -22 4 -18
25 5 26 34 40 69 33 16 -3 18 -16 19 -146 2 -179 3 -184 12 -200 12 -18 72
-26 103 -14 21 9 26 16 22 36 -4 19 -12 26 -29 26 -28 0 -27 -12 -28 192 -1
86 -5 160 -9 164 -4 5 -46 9 -94 11 -82 2 -87 1 -114 -27 -21 -21 -29 -38 -29
-64 0 -29 -4 -36 -19 -36 -18 0 -19 3 -10 30 14 38 80 113 125 141 86 53 214
62 306 22z m-444 -235 c-2 -17 3 -24 20 -26 22 -3 22 -6 21 -115 -1 -99 -3
-109 -15 -92 -22 30 -44 113 -44 164 0 46 8 91 17 91 2 0 3 -10 1 -22z"/>
<path d="M497 488 c-73 -53 -77 -211 -7 -273 17 -15 36 -20 85 -20 78 0 98 14
83 56 -7 22 -14 27 -21 20 -6 -6 -26 -11 -43 -11 -50 0 -77 41 -71 104 6 62
26 79 84 73 38 -4 42 -2 48 21 9 36 -13 50 -78 50 -37 0 -61 -6 -80 -20z"/>
</g>
</svg>
